<svg viewBox="0 0 149 125" xmlns="http://www.w3.org/2000/svg"><path d="M123.514 45.049c-7.034 0-25.031 0-34.076-.87a247.308 247.308 0 0 1-17.99-2.397c0-.05 3.777-15.085 9.9-21.603a23.2 23.2 0 0 0 2.4.13c11.103 0 31.836-5.11 33.74-16.395a2.53 2.53 0 0 0-1.211-2.597 2.528 2.528 0 0 0-.883-.314c-6.1-1.02-21.435-1.528-27.367 1.765-5.932 3.292-8.938 7.839-10.089 13.661a41.012 41.012 0 0 0-8.774 13.886c-1.84-5.11-8.485-14-8.492-14.041C57.975.288 34.107 4.872 25.662 8.954 17.217 13.037 10.47 24.408 10.824 26.05c.354 1.642 10.355 2.98 14.838 1.061 4.483-1.92 4.501-2.825 12.519-5.389 6.001-1.919 9.396-2.124 15.463-2.124.988 0 1.98-.056 2.973-.156 4.265 4.488 7.456 12.034 9.574 22.637-11.121 1.4-19.35 2.1-24.689 2.1-8.008 0-13.676.161-20.605.87-6.929.708-19.322 3.128-20.652 4.114-1.329.986 12.394.934 13.846.934h52.434c0 1.57-.278 3.126-.823 4.598-.845 2.288-2.186 5.869-3.262 8.53a10.306 10.306 0 0 1-4.974 5.376c-4.437 2.2-12.19 5.616-20.392.5-1.225-.764-7.717-3.41-9.28-2.391-1.563 1.019 5.522 4.816 6.67 5.528 4.137 2.564 8.593 3.859 13.168 3.859 1.896 0 3.814-.225 5.736-.672a34.156 34.156 0 0 1-9.493 5.55 39.138 39.138 0 0 0-16.08 11.56c-4.345.503-16.262 8.129-16.971 10.717-.709 2.587-4.15 9.393-2.975 9.64 1.175.247 2.724-3.695 2.975-4.884.789-3.739 3.999-6.636 9.541-8.612a34.19 34.19 0 0 1 3.419-1.012 39.027 39.027 0 0 0-3.904 10.003l-1.489 6.242c-.324 1.355.765 9.84 1.974 10.127 1.21.287 0-6.589 1.102-10.127a88.485 88.485 0 0 0 1.844-6.83c2.156-9.038 9.38-14.954 17.243-19.618-.819 4.707-.498 11.637 5.064 19.04.496.66 4.638 4.68 5.627 3.92.988-.758-.818-5.93-1.618-6.999-6.54-8.744-4.036-16.467-3-18.832A39.027 39.027 0 0 0 64.894 69.8L64 75.319c-.592 3.666.593 7.46 3.347 9.956a5.828 5.828 0 0 1 1.914 4.588 5.83 5.83 0 0 1-2.293 4.384L59.81 99.71c-1.059.808-5.517 3.316-4.793 4.432.492.759 3.067.076 6.265-.89a21.147 21.147 0 0 0 5.836-2.766c.499 2.76.517 6.823-2.353 10.269-.877 1.053-4.495 7.463-3.483 8.389.325.298 1.528-.534 3.61-2.494 1.302-1.214 2.12-2.018 2.454-2.411 5.322-6.283 5.134-13.923 4.101-17.268a10.853 10.853 0 0 0 2.865-6.883 10.86 10.86 0 0 0-3.543-8.53 5.815 5.815 0 0 1-1.81-5.227l1.555-9.621 3.456 11.77a12.384 12.384 0 0 0 3.958 6.034c1.316 1.6 8.957 11.421 4.571 18.587-.674 1.101-8.567 7.959-5.157 7.06s4.446-1.766 7.438-5.467c3.455-4.274 4.835-9.33 1.866-15.746a32.57 32.57 0 0 0-.75-1.512c1.171.007 2.361-.15 3.54-.491 3.73-1.082 7.703.922 9.046 4.56a32.066 32.066 0 0 0 8.885 12.926c-.17.64-.498 1.42-.413 2.322.413 4.389 1.902 5.483 3.589 8.71.451.862 4.093 6.926 5.175 6.338 1.083-.587-1.6-6.364-2.218-7.562-1.328-2.572-1.622-4.794-1.555-6.44 2.337 1.422 7.234 2.659 10.442 2.659s6.427.27 6.708-.902c.317-1.32-11.565-1.615-14.864-4.226-3.299-2.61-6.695-6.39-9.986-13.181a19.945 19.945 0 0 0 4.461.513c4.447 0 7.093-3.066 10.624-6.15 1.05-.918 6.715-6.103 6.255-6.681-.46-.578-7.047 3.449-8.098 4.367-7.902 6.901-16.808 1.264-17.209 1.003-.005-.004-.01-.005-.015-.007-3.134-3.062-7.787-4.386-12.237-3.097-3.925 1.138-8.053-1.122-9.203-5.037l-.255-.871a12.195 12.195 0 0 0 8.68-.209c1.261-.516 10.144-6.788 9.677-8.067-.498-1.362-10.223 3.715-11.55 4.268-1.89.79-3.951-.15-5.802-1.03a7.012 7.012 0 0 1-3.763-4.409l-3.576-12.131a15.969 15.969 0 0 1-.651-4.514h65.107c1.453 0 12.368 0 12.368-.934-3.162-3.15-18.512-4.114-25.545-4.114zm-29.579-40.6c3.737-1.17 13.309-1.252 16.952 0-8.698.603-12.949 2.489-16.492 4.085-2.976 1.341-5.453 2.478-9.649 2.478a17.986 17.986 0 0 1 9.19-6.562zm-54.65 6.62c-5.555.836-10.194 3.639-15.074 4.535 7.724-8.36 20.332-10.25 30.175-4.534-5.823 1.146-9.548-.834-15.102 0z" fill-rule="nonzero"/></svg>